<mxfile host="app.diagrams.net" modified="2021-01-07T19:07:36.169Z" agent="5.0 (Windows NT 6.1; Win64; x64) AppleWebKit/537.36 (KHTML, like Gecko) Chrome/87.0.4280.88 Safari/537.36" etag="sGsafNFn3D9m8Y2HwtRB" version="14.1.8" type="github">
  <diagram id="kgpKYQtTHZ0yAKxKKP6v" name="Page-1">
    <mxGraphModel dx="963" dy="1642" grid="1" gridSize="10" guides="1" tooltips="1" connect="1" arrows="1" fold="1" page="1" pageScale="1" pageWidth="850" pageHeight="1100" math="0" shadow="0">
      <root>
        <mxCell id="0" />
        <mxCell id="1" parent="0" />
        <mxCell id="3nuBFxr9cyL0pnOWT2aG-1" value="new_member" style="shape=umlLifeline;perimeter=lifelinePerimeter;container=1;collapsible=0;recursiveResize=0;rounded=0;shadow=0;strokeWidth=1;" parent="1" vertex="1">
          <mxGeometry x="164" y="-130" width="100" height="300" as="geometry" />
        </mxCell>
        <mxCell id="3nuBFxr9cyL0pnOWT2aG-2" value="" style="points=[];perimeter=orthogonalPerimeter;rounded=0;shadow=0;strokeWidth=1;" parent="3nuBFxr9cyL0pnOWT2aG-1" vertex="1">
          <mxGeometry x="45" y="70" width="10" height="30" as="geometry" />
        </mxCell>
        <mxCell id="3nuBFxr9cyL0pnOWT2aG-3" value="1.회원가입신청" style="verticalAlign=bottom;startArrow=oval;endArrow=block;startSize=8;shadow=0;strokeWidth=1;" parent="3nuBFxr9cyL0pnOWT2aG-1" target="3nuBFxr9cyL0pnOWT2aG-2" edge="1">
          <mxGeometry relative="1" as="geometry">
            <mxPoint x="-60" y="70" as="sourcePoint" />
          </mxGeometry>
        </mxCell>
        <mxCell id="3nuBFxr9cyL0pnOWT2aG-5" value="DB" style="shape=umlLifeline;perimeter=lifelinePerimeter;container=1;collapsible=0;recursiveResize=0;rounded=0;shadow=0;strokeWidth=1;" parent="1" vertex="1">
          <mxGeometry x="554" y="-130" width="106" height="320" as="geometry" />
        </mxCell>
        <mxCell id="3nuBFxr9cyL0pnOWT2aG-6" value="" style="points=[];perimeter=orthogonalPerimeter;rounded=0;shadow=0;strokeWidth=1;" parent="3nuBFxr9cyL0pnOWT2aG-5" vertex="1">
          <mxGeometry x="45" y="140" width="10" height="120" as="geometry" />
        </mxCell>
        <mxCell id="6qOEAzcNz2W8X_dl7vt0-56" value="" style="points=[];perimeter=orthogonalPerimeter;rounded=0;shadow=0;strokeWidth=1;" vertex="1" parent="3nuBFxr9cyL0pnOWT2aG-5">
          <mxGeometry x="45" y="70" width="10" height="40" as="geometry" />
        </mxCell>
        <mxCell id="6qOEAzcNz2W8X_dl7vt0-62" value="7.일반회원가입 성공" style="verticalAlign=bottom;endArrow=block;shadow=0;strokeWidth=1;" edge="1" parent="3nuBFxr9cyL0pnOWT2aG-5" source="6qOEAzcNz2W8X_dl7vt0-52">
          <mxGeometry relative="1" as="geometry">
            <mxPoint x="175" y="250" as="sourcePoint" />
            <mxPoint x="-440" y="250" as="targetPoint" />
          </mxGeometry>
        </mxCell>
        <mxCell id="6qOEAzcNz2W8X_dl7vt0-54" value="alt" style="shape=umlFrame;whiteSpace=wrap;html=1;gradientColor=#ffffff;" vertex="1" parent="3nuBFxr9cyL0pnOWT2aG-5">
          <mxGeometry x="-480" y="140" width="710" height="180" as="geometry" />
        </mxCell>
        <mxCell id="3nuBFxr9cyL0pnOWT2aG-8" value="2.일반회원 선택" style="verticalAlign=bottom;endArrow=block;shadow=0;strokeWidth=1;" parent="1" source="3nuBFxr9cyL0pnOWT2aG-2" edge="1">
          <mxGeometry relative="1" as="geometry">
            <mxPoint x="424" y="-50" as="sourcePoint" />
            <mxPoint x="374" y="-45" as="targetPoint" />
          </mxGeometry>
        </mxCell>
        <mxCell id="3nuBFxr9cyL0pnOWT2aG-9" value="5.중복된 ID 에러메세지" style="verticalAlign=bottom;endArrow=block;shadow=0;strokeWidth=1;" parent="1" source="3nuBFxr9cyL0pnOWT2aG-6" edge="1">
          <mxGeometry relative="1" as="geometry">
            <mxPoint x="389" y="-10" as="sourcePoint" />
            <mxPoint x="394" y="30" as="targetPoint" />
          </mxGeometry>
        </mxCell>
        <object label="user" id="6qOEAzcNz2W8X_dl7vt0-7">
          <mxCell style="shape=umlActor;verticalLabelPosition=bottom;verticalAlign=top;html=1;" vertex="1" parent="1">
            <mxGeometry x="84" y="-140" width="30" height="60" as="geometry" />
          </mxCell>
        </object>
        <mxCell id="6qOEAzcNz2W8X_dl7vt0-206" value="" style="edgeStyle=orthogonalEdgeStyle;rounded=0;orthogonalLoop=1;jettySize=auto;html=1;dashed=1;" edge="1" parent="1" source="6qOEAzcNz2W8X_dl7vt0-12" target="6qOEAzcNz2W8X_dl7vt0-38">
          <mxGeometry relative="1" as="geometry" />
        </mxCell>
        <mxCell id="6qOEAzcNz2W8X_dl7vt0-12" value="판매회원&lt;br&gt;" style="shape=umlActor;verticalLabelPosition=bottom;verticalAlign=top;html=1;gradientColor=#ffffff;" vertex="1" parent="1">
          <mxGeometry x="84" y="750" width="30" height="60" as="geometry" />
        </mxCell>
        <mxCell id="6qOEAzcNz2W8X_dl7vt0-21" value="관리자&lt;br&gt;" style="shape=umlActor;verticalLabelPosition=bottom;verticalAlign=top;html=1;gradientColor=#ffffff;" vertex="1" parent="1">
          <mxGeometry x="540" y="760" width="30" height="60" as="geometry" />
        </mxCell>
        <mxCell id="6qOEAzcNz2W8X_dl7vt0-26" value="" style="endArrow=none;dashed=1;html=1;" edge="1" parent="1" target="6qOEAzcNz2W8X_dl7vt0-7">
          <mxGeometry width="50" height="50" relative="1" as="geometry">
            <mxPoint x="99" y="160" as="sourcePoint" />
            <mxPoint x="104" y="-60" as="targetPoint" />
          </mxGeometry>
        </mxCell>
        <mxCell id="6qOEAzcNz2W8X_dl7vt0-27" value="" style="endArrow=none;dashed=1;html=1;" edge="1" parent="1" source="6qOEAzcNz2W8X_dl7vt0-38">
          <mxGeometry width="50" height="50" relative="1" as="geometry">
            <mxPoint x="98.5" y="1070" as="sourcePoint" />
            <mxPoint x="98.5" y="830" as="targetPoint" />
          </mxGeometry>
        </mxCell>
        <mxCell id="6qOEAzcNz2W8X_dl7vt0-28" value="" style="endArrow=none;dashed=1;html=1;" edge="1" parent="1">
          <mxGeometry width="50" height="50" relative="1" as="geometry">
            <mxPoint x="554.5" y="900" as="sourcePoint" />
            <mxPoint x="554.5" y="840" as="targetPoint" />
          </mxGeometry>
        </mxCell>
        <mxCell id="6qOEAzcNz2W8X_dl7vt0-33" value="글쓰기" style="shape=umlLifeline;perimeter=lifelinePerimeter;container=1;collapsible=0;recursiveResize=0;rounded=0;shadow=0;strokeWidth=1;" vertex="1" parent="1">
          <mxGeometry x="184" y="770" width="100" height="300" as="geometry" />
        </mxCell>
        <mxCell id="6qOEAzcNz2W8X_dl7vt0-208" value="" style="points=[];perimeter=orthogonalPerimeter;rounded=0;shadow=0;strokeWidth=1;" vertex="1" parent="6qOEAzcNz2W8X_dl7vt0-33">
          <mxGeometry x="45" y="70" width="10" height="40" as="geometry" />
        </mxCell>
        <mxCell id="6qOEAzcNz2W8X_dl7vt0-36" value="출력" style="shape=umlLifeline;perimeter=lifelinePerimeter;container=1;collapsible=0;recursiveResize=0;rounded=0;shadow=0;strokeWidth=1;" vertex="1" parent="1">
          <mxGeometry x="640.12" y="770" width="100" height="300" as="geometry" />
        </mxCell>
        <mxCell id="6qOEAzcNz2W8X_dl7vt0-37" value="" style="points=[];perimeter=orthogonalPerimeter;rounded=0;shadow=0;strokeWidth=1;" vertex="1" parent="6qOEAzcNz2W8X_dl7vt0-36">
          <mxGeometry x="43.88" y="230" width="10" height="40" as="geometry" />
        </mxCell>
        <mxCell id="6qOEAzcNz2W8X_dl7vt0-38" value="" style="points=[];perimeter=orthogonalPerimeter;rounded=0;shadow=0;strokeWidth=1;" vertex="1" parent="1">
          <mxGeometry x="94" y="840" width="10" height="40" as="geometry" />
        </mxCell>
        <mxCell id="6qOEAzcNz2W8X_dl7vt0-39" value="" style="endArrow=none;dashed=1;html=1;" edge="1" parent="1" target="6qOEAzcNz2W8X_dl7vt0-38">
          <mxGeometry width="50" height="50" relative="1" as="geometry">
            <mxPoint x="98.5" y="1070" as="sourcePoint" />
            <mxPoint x="98.5" y="830" as="targetPoint" />
          </mxGeometry>
        </mxCell>
        <mxCell id="6qOEAzcNz2W8X_dl7vt0-41" value="" style="endArrow=none;dashed=1;html=1;" edge="1" parent="1">
          <mxGeometry width="50" height="50" relative="1" as="geometry">
            <mxPoint x="554.5" y="1080" as="sourcePoint" />
            <mxPoint x="554.5" y="940" as="targetPoint" />
          </mxGeometry>
        </mxCell>
        <mxCell id="6qOEAzcNz2W8X_dl7vt0-42" value="DB" style="shape=umlLifeline;perimeter=lifelinePerimeter;container=1;collapsible=0;recursiveResize=0;rounded=0;shadow=0;strokeWidth=1;" vertex="1" parent="1">
          <mxGeometry x="314" y="770" width="100" height="300" as="geometry" />
        </mxCell>
        <mxCell id="6qOEAzcNz2W8X_dl7vt0-43" value="" style="points=[];perimeter=orthogonalPerimeter;rounded=0;shadow=0;strokeWidth=1;" vertex="1" parent="6qOEAzcNz2W8X_dl7vt0-42">
          <mxGeometry x="45" y="70" width="10" height="40" as="geometry" />
        </mxCell>
        <mxCell id="6qOEAzcNz2W8X_dl7vt0-213" value="" style="points=[];perimeter=orthogonalPerimeter;rounded=0;shadow=0;strokeWidth=1;" vertex="1" parent="6qOEAzcNz2W8X_dl7vt0-42">
          <mxGeometry x="45" y="120" width="10" height="50" as="geometry" />
        </mxCell>
        <mxCell id="6qOEAzcNz2W8X_dl7vt0-221" value="" style="points=[];perimeter=orthogonalPerimeter;rounded=0;shadow=0;strokeWidth=1;" vertex="1" parent="6qOEAzcNz2W8X_dl7vt0-42">
          <mxGeometry x="45" y="180" width="10" height="90" as="geometry" />
        </mxCell>
        <mxCell id="6qOEAzcNz2W8X_dl7vt0-49" value="일반회원가입" style="shape=umlLifeline;perimeter=lifelinePerimeter;container=1;collapsible=0;recursiveResize=0;rounded=0;shadow=0;strokeWidth=1;" vertex="1" parent="1">
          <mxGeometry x="334" y="-130" width="100" height="300" as="geometry" />
        </mxCell>
        <mxCell id="6qOEAzcNz2W8X_dl7vt0-55" value="" style="points=[];perimeter=orthogonalPerimeter;rounded=0;shadow=0;strokeWidth=1;" vertex="1" parent="6qOEAzcNz2W8X_dl7vt0-49">
          <mxGeometry x="45" y="70" width="10" height="30" as="geometry" />
        </mxCell>
        <mxCell id="6qOEAzcNz2W8X_dl7vt0-51" value="3.가입 정보 저장" style="verticalAlign=bottom;endArrow=block;shadow=0;strokeWidth=1;" edge="1" parent="1">
          <mxGeometry relative="1" as="geometry">
            <mxPoint x="394" y="-44" as="sourcePoint" />
            <mxPoint x="594" y="-44" as="targetPoint" />
          </mxGeometry>
        </mxCell>
        <mxCell id="6qOEAzcNz2W8X_dl7vt0-52" value="member" style="shape=umlLifeline;perimeter=lifelinePerimeter;container=1;collapsible=0;recursiveResize=0;rounded=0;shadow=0;strokeWidth=1;" vertex="1" parent="1">
          <mxGeometry x="704" y="-130" width="100" height="300" as="geometry" />
        </mxCell>
        <mxCell id="6qOEAzcNz2W8X_dl7vt0-53" value="" style="points=[];perimeter=orthogonalPerimeter;rounded=0;shadow=0;strokeWidth=1;" vertex="1" parent="6qOEAzcNz2W8X_dl7vt0-52">
          <mxGeometry x="45" y="230" width="10" height="30" as="geometry" />
        </mxCell>
        <mxCell id="6qOEAzcNz2W8X_dl7vt0-58" value="" style="edgeStyle=elbowEdgeStyle;elbow=horizontal;endArrow=classic;html=1;entryX=1;entryY=0.075;entryDx=0;entryDy=0;entryPerimeter=0;" edge="1" parent="1" target="3nuBFxr9cyL0pnOWT2aG-6">
          <mxGeometry width="50" height="50" relative="1" as="geometry">
            <mxPoint x="614" y="-40" as="sourcePoint" />
            <mxPoint x="634" y="40" as="targetPoint" />
            <Array as="points">
              <mxPoint x="684" y="110" />
            </Array>
          </mxGeometry>
        </mxCell>
        <mxCell id="6qOEAzcNz2W8X_dl7vt0-59" value="4.Id중복여부 확인" style="text;html=1;strokeColor=none;fillColor=none;align=center;verticalAlign=middle;whiteSpace=wrap;rounded=0;" vertex="1" parent="1">
          <mxGeometry x="594" y="-20" width="100" height="20" as="geometry" />
        </mxCell>
        <mxCell id="6qOEAzcNz2W8X_dl7vt0-60" value="" style="points=[];perimeter=orthogonalPerimeter;rounded=0;shadow=0;strokeWidth=1;" vertex="1" parent="1">
          <mxGeometry x="379" y="20" width="10" height="30" as="geometry" />
        </mxCell>
        <mxCell id="6qOEAzcNz2W8X_dl7vt0-63" value="" style="points=[];perimeter=orthogonalPerimeter;rounded=0;shadow=0;strokeWidth=1;" vertex="1" parent="1">
          <mxGeometry x="94" y="100" width="10" height="30" as="geometry" />
        </mxCell>
        <mxCell id="6qOEAzcNz2W8X_dl7vt0-66" value="" style="endArrow=none;dashed=1;html=1;strokeWidth=2;entryX=1.001;entryY=0.339;entryDx=0;entryDy=0;entryPerimeter=0;" edge="1" parent="1" target="6qOEAzcNz2W8X_dl7vt0-54">
          <mxGeometry width="50" height="50" relative="1" as="geometry">
            <mxPoint x="74" y="70" as="sourcePoint" />
            <mxPoint x="774" y="70" as="targetPoint" />
          </mxGeometry>
        </mxCell>
        <mxCell id="6qOEAzcNz2W8X_dl7vt0-67" value="6.가입정보 저장" style="verticalAlign=bottom;endArrow=block;shadow=0;strokeWidth=1;" edge="1" parent="1">
          <mxGeometry relative="1" as="geometry">
            <mxPoint x="614" y="60" as="sourcePoint" />
            <mxPoint x="754" y="60" as="targetPoint" />
          </mxGeometry>
        </mxCell>
        <mxCell id="6qOEAzcNz2W8X_dl7vt0-69" value="&lt;h1&gt;일반회원 회원가입 시퀀스 다이어그램&lt;/h1&gt;" style="text;html=1;strokeColor=none;fillColor=none;spacing=5;spacingTop=-20;whiteSpace=wrap;overflow=hidden;rounded=0;" vertex="1" parent="1">
          <mxGeometry x="209" y="-210" width="440" height="120" as="geometry" />
        </mxCell>
        <mxCell id="6qOEAzcNz2W8X_dl7vt0-70" value="new_member" style="shape=umlLifeline;perimeter=lifelinePerimeter;container=1;collapsible=0;recursiveResize=0;rounded=0;shadow=0;strokeWidth=1;" vertex="1" parent="1">
          <mxGeometry x="164" y="320" width="100" height="300" as="geometry" />
        </mxCell>
        <mxCell id="6qOEAzcNz2W8X_dl7vt0-71" value="" style="points=[];perimeter=orthogonalPerimeter;rounded=0;shadow=0;strokeWidth=1;" vertex="1" parent="6qOEAzcNz2W8X_dl7vt0-70">
          <mxGeometry x="45" y="70" width="10" height="30" as="geometry" />
        </mxCell>
        <mxCell id="6qOEAzcNz2W8X_dl7vt0-72" value="1.회원가입신청" style="verticalAlign=bottom;startArrow=oval;endArrow=block;startSize=8;shadow=0;strokeWidth=1;" edge="1" parent="6qOEAzcNz2W8X_dl7vt0-70" target="6qOEAzcNz2W8X_dl7vt0-71">
          <mxGeometry relative="1" as="geometry">
            <mxPoint x="-60" y="70" as="sourcePoint" />
          </mxGeometry>
        </mxCell>
        <mxCell id="6qOEAzcNz2W8X_dl7vt0-73" value="DB" style="shape=umlLifeline;perimeter=lifelinePerimeter;container=1;collapsible=0;recursiveResize=0;rounded=0;shadow=0;strokeWidth=1;" vertex="1" parent="1">
          <mxGeometry x="554" y="320" width="100" height="300" as="geometry" />
        </mxCell>
        <mxCell id="6qOEAzcNz2W8X_dl7vt0-74" value="" style="points=[];perimeter=orthogonalPerimeter;rounded=0;shadow=0;strokeWidth=1;" vertex="1" parent="6qOEAzcNz2W8X_dl7vt0-73">
          <mxGeometry x="45" y="140" width="10" height="120" as="geometry" />
        </mxCell>
        <mxCell id="6qOEAzcNz2W8X_dl7vt0-75" value="" style="points=[];perimeter=orthogonalPerimeter;rounded=0;shadow=0;strokeWidth=1;" vertex="1" parent="6qOEAzcNz2W8X_dl7vt0-73">
          <mxGeometry x="45" y="70" width="10" height="40" as="geometry" />
        </mxCell>
        <mxCell id="6qOEAzcNz2W8X_dl7vt0-76" value="7.판매 회원가입 성공" style="verticalAlign=bottom;endArrow=block;shadow=0;strokeWidth=1;" edge="1" parent="6qOEAzcNz2W8X_dl7vt0-73" source="6qOEAzcNz2W8X_dl7vt0-84">
          <mxGeometry relative="1" as="geometry">
            <mxPoint x="175" y="250" as="sourcePoint" />
            <mxPoint x="-440" y="250" as="targetPoint" />
          </mxGeometry>
        </mxCell>
        <mxCell id="6qOEAzcNz2W8X_dl7vt0-77" value="2.판매회원 선택" style="verticalAlign=bottom;endArrow=block;shadow=0;strokeWidth=1;" edge="1" parent="1" source="6qOEAzcNz2W8X_dl7vt0-71">
          <mxGeometry relative="1" as="geometry">
            <mxPoint x="424" y="400" as="sourcePoint" />
            <mxPoint x="374" y="405" as="targetPoint" />
          </mxGeometry>
        </mxCell>
        <mxCell id="6qOEAzcNz2W8X_dl7vt0-78" value="5.중복된 ID 에러메세지" style="verticalAlign=bottom;endArrow=block;shadow=0;strokeWidth=1;" edge="1" parent="1" source="6qOEAzcNz2W8X_dl7vt0-74">
          <mxGeometry relative="1" as="geometry">
            <mxPoint x="389" y="440" as="sourcePoint" />
            <mxPoint x="394" y="480" as="targetPoint" />
          </mxGeometry>
        </mxCell>
        <object label="user" id="6qOEAzcNz2W8X_dl7vt0-79">
          <mxCell style="shape=umlActor;verticalLabelPosition=bottom;verticalAlign=top;html=1;" vertex="1" parent="1">
            <mxGeometry x="84" y="310" width="30" height="60" as="geometry" />
          </mxCell>
        </object>
        <mxCell id="6qOEAzcNz2W8X_dl7vt0-80" value="" style="endArrow=none;dashed=1;html=1;" edge="1" parent="1" target="6qOEAzcNz2W8X_dl7vt0-79">
          <mxGeometry width="50" height="50" relative="1" as="geometry">
            <mxPoint x="99" y="610" as="sourcePoint" />
            <mxPoint x="104" y="390" as="targetPoint" />
          </mxGeometry>
        </mxCell>
        <mxCell id="6qOEAzcNz2W8X_dl7vt0-81" value="판매회원가입" style="shape=umlLifeline;perimeter=lifelinePerimeter;container=1;collapsible=0;recursiveResize=0;rounded=0;shadow=0;strokeWidth=1;" vertex="1" parent="1">
          <mxGeometry x="334" y="320" width="100" height="300" as="geometry" />
        </mxCell>
        <mxCell id="6qOEAzcNz2W8X_dl7vt0-82" value="" style="points=[];perimeter=orthogonalPerimeter;rounded=0;shadow=0;strokeWidth=1;" vertex="1" parent="6qOEAzcNz2W8X_dl7vt0-81">
          <mxGeometry x="45" y="70" width="10" height="30" as="geometry" />
        </mxCell>
        <mxCell id="6qOEAzcNz2W8X_dl7vt0-83" value="3.가입 정보 저장" style="verticalAlign=bottom;endArrow=block;shadow=0;strokeWidth=1;" edge="1" parent="1">
          <mxGeometry relative="1" as="geometry">
            <mxPoint x="394" y="406" as="sourcePoint" />
            <mxPoint x="594" y="406" as="targetPoint" />
          </mxGeometry>
        </mxCell>
        <mxCell id="6qOEAzcNz2W8X_dl7vt0-84" value="seller" style="shape=umlLifeline;perimeter=lifelinePerimeter;container=1;collapsible=0;recursiveResize=0;rounded=0;shadow=0;strokeWidth=1;" vertex="1" parent="1">
          <mxGeometry x="704" y="320" width="100" height="300" as="geometry" />
        </mxCell>
        <mxCell id="6qOEAzcNz2W8X_dl7vt0-85" value="" style="points=[];perimeter=orthogonalPerimeter;rounded=0;shadow=0;strokeWidth=1;" vertex="1" parent="6qOEAzcNz2W8X_dl7vt0-84">
          <mxGeometry x="45" y="230" width="10" height="30" as="geometry" />
        </mxCell>
        <mxCell id="6qOEAzcNz2W8X_dl7vt0-86" value="alt" style="shape=umlFrame;whiteSpace=wrap;html=1;gradientColor=#ffffff;" vertex="1" parent="1">
          <mxGeometry x="84" y="460" width="710" height="180" as="geometry" />
        </mxCell>
        <mxCell id="6qOEAzcNz2W8X_dl7vt0-87" value="" style="edgeStyle=elbowEdgeStyle;elbow=horizontal;endArrow=classic;html=1;entryX=1;entryY=0.075;entryDx=0;entryDy=0;entryPerimeter=0;" edge="1" parent="1" target="6qOEAzcNz2W8X_dl7vt0-74">
          <mxGeometry width="50" height="50" relative="1" as="geometry">
            <mxPoint x="614" y="410" as="sourcePoint" />
            <mxPoint x="634" y="490" as="targetPoint" />
            <Array as="points">
              <mxPoint x="684" y="560" />
            </Array>
          </mxGeometry>
        </mxCell>
        <mxCell id="6qOEAzcNz2W8X_dl7vt0-88" value="4.Id중복여부 확인" style="text;html=1;strokeColor=none;fillColor=none;align=center;verticalAlign=middle;whiteSpace=wrap;rounded=0;" vertex="1" parent="1">
          <mxGeometry x="594" y="430" width="100" height="20" as="geometry" />
        </mxCell>
        <mxCell id="6qOEAzcNz2W8X_dl7vt0-89" value="" style="points=[];perimeter=orthogonalPerimeter;rounded=0;shadow=0;strokeWidth=1;" vertex="1" parent="1">
          <mxGeometry x="379" y="470" width="10" height="30" as="geometry" />
        </mxCell>
        <mxCell id="6qOEAzcNz2W8X_dl7vt0-90" value="" style="points=[];perimeter=orthogonalPerimeter;rounded=0;shadow=0;strokeWidth=1;" vertex="1" parent="1">
          <mxGeometry x="94" y="550" width="10" height="30" as="geometry" />
        </mxCell>
        <mxCell id="6qOEAzcNz2W8X_dl7vt0-91" value="" style="endArrow=none;dashed=1;html=1;strokeWidth=2;entryX=1.001;entryY=0.339;entryDx=0;entryDy=0;entryPerimeter=0;" edge="1" parent="1" target="6qOEAzcNz2W8X_dl7vt0-86">
          <mxGeometry width="50" height="50" relative="1" as="geometry">
            <mxPoint x="74" y="520" as="sourcePoint" />
            <mxPoint x="774" y="520" as="targetPoint" />
          </mxGeometry>
        </mxCell>
        <mxCell id="6qOEAzcNz2W8X_dl7vt0-92" value="6.가입정보 저장" style="verticalAlign=bottom;endArrow=block;shadow=0;strokeWidth=1;" edge="1" parent="1">
          <mxGeometry relative="1" as="geometry">
            <mxPoint x="614" y="510" as="sourcePoint" />
            <mxPoint x="754" y="510" as="targetPoint" />
          </mxGeometry>
        </mxCell>
        <mxCell id="6qOEAzcNz2W8X_dl7vt0-93" value="&lt;h1&gt;판매회원 회원가입 시퀀스 다이어그램&lt;/h1&gt;" style="text;html=1;strokeColor=none;fillColor=none;spacing=5;spacingTop=-20;whiteSpace=wrap;overflow=hidden;rounded=0;" vertex="1" parent="1">
          <mxGeometry x="209" y="240" width="440" height="50" as="geometry" />
        </mxCell>
        <mxCell id="6qOEAzcNz2W8X_dl7vt0-125" value="loginselector" style="shape=umlLifeline;perimeter=lifelinePerimeter;container=1;collapsible=0;recursiveResize=0;rounded=0;shadow=0;strokeWidth=1;" vertex="1" parent="1">
          <mxGeometry x="219" y="-1000" width="101" height="300" as="geometry" />
        </mxCell>
        <mxCell id="6qOEAzcNz2W8X_dl7vt0-126" value="" style="points=[];perimeter=orthogonalPerimeter;rounded=0;shadow=0;strokeWidth=1;" vertex="1" parent="6qOEAzcNz2W8X_dl7vt0-125">
          <mxGeometry x="45" y="70" width="10" height="30" as="geometry" />
        </mxCell>
        <mxCell id="6qOEAzcNz2W8X_dl7vt0-127" value="1.로그인창" style="verticalAlign=bottom;startArrow=oval;endArrow=block;startSize=8;shadow=0;strokeWidth=1;" edge="1" parent="6qOEAzcNz2W8X_dl7vt0-125" target="6qOEAzcNz2W8X_dl7vt0-126">
          <mxGeometry relative="1" as="geometry">
            <mxPoint x="-60" y="70" as="sourcePoint" />
          </mxGeometry>
        </mxCell>
        <mxCell id="6qOEAzcNz2W8X_dl7vt0-128" value="DB" style="shape=umlLifeline;perimeter=lifelinePerimeter;container=1;collapsible=0;recursiveResize=0;rounded=0;shadow=0;strokeWidth=1;" vertex="1" parent="1">
          <mxGeometry x="609" y="-1000" width="100" height="300" as="geometry" />
        </mxCell>
        <mxCell id="6qOEAzcNz2W8X_dl7vt0-129" value="" style="points=[];perimeter=orthogonalPerimeter;rounded=0;shadow=0;strokeWidth=1;" vertex="1" parent="6qOEAzcNz2W8X_dl7vt0-128">
          <mxGeometry x="45" y="170" width="10" height="30" as="geometry" />
        </mxCell>
        <mxCell id="6qOEAzcNz2W8X_dl7vt0-130" value="" style="points=[];perimeter=orthogonalPerimeter;rounded=0;shadow=0;strokeWidth=1;" vertex="1" parent="6qOEAzcNz2W8X_dl7vt0-128">
          <mxGeometry x="45" y="70" width="10" height="40" as="geometry" />
        </mxCell>
        <mxCell id="6qOEAzcNz2W8X_dl7vt0-132" value="2.일반회원 선택" style="verticalAlign=bottom;endArrow=block;shadow=0;strokeWidth=1;" edge="1" parent="1" source="6qOEAzcNz2W8X_dl7vt0-126">
          <mxGeometry relative="1" as="geometry">
            <mxPoint x="479" y="-920" as="sourcePoint" />
            <mxPoint x="429" y="-915" as="targetPoint" />
          </mxGeometry>
        </mxCell>
        <mxCell id="6qOEAzcNz2W8X_dl7vt0-133" value="5..[true ]login 성공" style="verticalAlign=bottom;endArrow=block;shadow=0;strokeWidth=1;" edge="1" parent="1">
          <mxGeometry relative="1" as="geometry">
            <mxPoint x="654" y="-813" as="sourcePoint" />
            <mxPoint x="173" y="-813" as="targetPoint" />
          </mxGeometry>
        </mxCell>
        <object label="user" id="6qOEAzcNz2W8X_dl7vt0-134">
          <mxCell style="shape=umlActor;verticalLabelPosition=bottom;verticalAlign=top;html=1;" vertex="1" parent="1">
            <mxGeometry x="139" y="-1010" width="30" height="60" as="geometry" />
          </mxCell>
        </object>
        <mxCell id="6qOEAzcNz2W8X_dl7vt0-135" value="" style="endArrow=none;dashed=1;html=1;" edge="1" parent="1" target="6qOEAzcNz2W8X_dl7vt0-134" source="6qOEAzcNz2W8X_dl7vt0-144">
          <mxGeometry width="50" height="50" relative="1" as="geometry">
            <mxPoint x="154" y="-710" as="sourcePoint" />
            <mxPoint x="159" y="-930" as="targetPoint" />
          </mxGeometry>
        </mxCell>
        <mxCell id="6qOEAzcNz2W8X_dl7vt0-136" value="로그인창" style="shape=umlLifeline;perimeter=lifelinePerimeter;container=1;collapsible=0;recursiveResize=0;rounded=0;shadow=0;strokeWidth=1;" vertex="1" parent="1">
          <mxGeometry x="389" y="-1000" width="100" height="300" as="geometry" />
        </mxCell>
        <mxCell id="6qOEAzcNz2W8X_dl7vt0-137" value="" style="points=[];perimeter=orthogonalPerimeter;rounded=0;shadow=0;strokeWidth=1;" vertex="1" parent="6qOEAzcNz2W8X_dl7vt0-136">
          <mxGeometry x="45" y="70" width="10" height="30" as="geometry" />
        </mxCell>
        <mxCell id="6qOEAzcNz2W8X_dl7vt0-138" value="3.id,pwd입력" style="verticalAlign=bottom;endArrow=block;shadow=0;strokeWidth=1;" edge="1" parent="1">
          <mxGeometry relative="1" as="geometry">
            <mxPoint x="449" y="-914" as="sourcePoint" />
            <mxPoint x="649" y="-914" as="targetPoint" />
          </mxGeometry>
        </mxCell>
        <mxCell id="6qOEAzcNz2W8X_dl7vt0-141" value="alt" style="shape=umlFrame;whiteSpace=wrap;html=1;gradientColor=#ffffff;" vertex="1" parent="1">
          <mxGeometry x="120" y="-870" width="560" height="180" as="geometry" />
        </mxCell>
        <mxCell id="6qOEAzcNz2W8X_dl7vt0-142" value="" style="edgeStyle=elbowEdgeStyle;elbow=horizontal;endArrow=classic;html=1;entryX=1;entryY=0.075;entryDx=0;entryDy=0;entryPerimeter=0;" edge="1" parent="1" target="6qOEAzcNz2W8X_dl7vt0-129">
          <mxGeometry width="50" height="50" relative="1" as="geometry">
            <mxPoint x="669" y="-910" as="sourcePoint" />
            <mxPoint x="689" y="-830" as="targetPoint" />
            <Array as="points">
              <mxPoint x="739" y="-760" />
            </Array>
          </mxGeometry>
        </mxCell>
        <mxCell id="6qOEAzcNz2W8X_dl7vt0-143" value="4.일치여부확인" style="text;html=1;strokeColor=none;fillColor=none;align=center;verticalAlign=middle;whiteSpace=wrap;rounded=0;" vertex="1" parent="1">
          <mxGeometry x="649" y="-890" width="100" height="20" as="geometry" />
        </mxCell>
        <mxCell id="6qOEAzcNz2W8X_dl7vt0-145" value="" style="points=[];perimeter=orthogonalPerimeter;rounded=0;shadow=0;strokeWidth=1;" vertex="1" parent="1">
          <mxGeometry x="149" y="-770" width="10" height="30" as="geometry" />
        </mxCell>
        <mxCell id="6qOEAzcNz2W8X_dl7vt0-146" value="" style="endArrow=none;dashed=1;html=1;strokeWidth=2;exitX=-0.002;exitY=0.439;exitDx=0;exitDy=0;exitPerimeter=0;" edge="1" parent="1" source="6qOEAzcNz2W8X_dl7vt0-141">
          <mxGeometry width="50" height="50" relative="1" as="geometry">
            <mxPoint x="129" y="-800" as="sourcePoint" />
            <mxPoint x="685" y="-790" as="targetPoint" />
          </mxGeometry>
        </mxCell>
        <mxCell id="6qOEAzcNz2W8X_dl7vt0-148" value="&lt;h1&gt;일반회원 로그인 시퀀스 다이어그램&lt;/h1&gt;" style="text;html=1;strokeColor=none;fillColor=none;spacing=5;spacingTop=-20;whiteSpace=wrap;overflow=hidden;rounded=0;" vertex="1" parent="1">
          <mxGeometry x="209" y="-1080" width="440" height="50" as="geometry" />
        </mxCell>
        <mxCell id="6qOEAzcNz2W8X_dl7vt0-173" value="" style="endArrow=none;dashed=1;html=1;" edge="1" parent="1" source="6qOEAzcNz2W8X_dl7vt0-144">
          <mxGeometry width="50" height="50" relative="1" as="geometry">
            <mxPoint x="153.5" y="-700" as="sourcePoint" />
            <mxPoint x="153.5" y="-820" as="targetPoint" />
          </mxGeometry>
        </mxCell>
        <mxCell id="6qOEAzcNz2W8X_dl7vt0-174" value="6.[false] ]login 실패" style="verticalAlign=bottom;endArrow=block;shadow=0;strokeWidth=1;" edge="1" parent="1">
          <mxGeometry relative="1" as="geometry">
            <mxPoint x="657" y="-750" as="sourcePoint" />
            <mxPoint x="168" y="-750" as="targetPoint" />
          </mxGeometry>
        </mxCell>
        <mxCell id="6qOEAzcNz2W8X_dl7vt0-144" value="" style="points=[];perimeter=orthogonalPerimeter;rounded=0;shadow=0;strokeWidth=1;" vertex="1" parent="1">
          <mxGeometry x="149" y="-830" width="10" height="30" as="geometry" />
        </mxCell>
        <mxCell id="6qOEAzcNz2W8X_dl7vt0-176" value="" style="endArrow=none;dashed=1;html=1;" edge="1" parent="1" target="6qOEAzcNz2W8X_dl7vt0-144">
          <mxGeometry width="50" height="50" relative="1" as="geometry">
            <mxPoint x="153.5" y="-700" as="sourcePoint" />
            <mxPoint x="153.5" y="-820" as="targetPoint" />
          </mxGeometry>
        </mxCell>
        <mxCell id="6qOEAzcNz2W8X_dl7vt0-178" value="[else]" style="text;html=1;strokeColor=none;fillColor=none;align=center;verticalAlign=middle;whiteSpace=wrap;rounded=0;" vertex="1" parent="1">
          <mxGeometry x="159" y="-790" width="51" height="20" as="geometry" />
        </mxCell>
        <mxCell id="6qOEAzcNz2W8X_dl7vt0-179" value="loginselector" style="shape=umlLifeline;perimeter=lifelinePerimeter;container=1;collapsible=0;recursiveResize=0;rounded=0;shadow=0;strokeWidth=1;" vertex="1" parent="1">
          <mxGeometry x="210.12" y="-580" width="101" height="300" as="geometry" />
        </mxCell>
        <mxCell id="6qOEAzcNz2W8X_dl7vt0-180" value="" style="points=[];perimeter=orthogonalPerimeter;rounded=0;shadow=0;strokeWidth=1;" vertex="1" parent="6qOEAzcNz2W8X_dl7vt0-179">
          <mxGeometry x="45" y="70" width="10" height="30" as="geometry" />
        </mxCell>
        <mxCell id="6qOEAzcNz2W8X_dl7vt0-181" value="1.로그인창" style="verticalAlign=bottom;startArrow=oval;endArrow=block;startSize=8;shadow=0;strokeWidth=1;" edge="1" parent="6qOEAzcNz2W8X_dl7vt0-179" target="6qOEAzcNz2W8X_dl7vt0-180">
          <mxGeometry relative="1" as="geometry">
            <mxPoint x="-60" y="70" as="sourcePoint" />
          </mxGeometry>
        </mxCell>
        <mxCell id="6qOEAzcNz2W8X_dl7vt0-183" value="DB" style="shape=umlLifeline;perimeter=lifelinePerimeter;container=1;collapsible=0;recursiveResize=0;rounded=0;shadow=0;strokeWidth=1;" vertex="1" parent="1">
          <mxGeometry x="600.12" y="-580" width="100" height="300" as="geometry" />
        </mxCell>
        <mxCell id="6qOEAzcNz2W8X_dl7vt0-184" value="" style="points=[];perimeter=orthogonalPerimeter;rounded=0;shadow=0;strokeWidth=1;" vertex="1" parent="6qOEAzcNz2W8X_dl7vt0-183">
          <mxGeometry x="45" y="170" width="10" height="30" as="geometry" />
        </mxCell>
        <mxCell id="6qOEAzcNz2W8X_dl7vt0-185" value="" style="points=[];perimeter=orthogonalPerimeter;rounded=0;shadow=0;strokeWidth=1;" vertex="1" parent="6qOEAzcNz2W8X_dl7vt0-183">
          <mxGeometry x="45" y="70" width="10" height="40" as="geometry" />
        </mxCell>
        <mxCell id="6qOEAzcNz2W8X_dl7vt0-186" value="2.판매회원 선택" style="verticalAlign=bottom;endArrow=block;shadow=0;strokeWidth=1;" edge="1" parent="1" source="6qOEAzcNz2W8X_dl7vt0-180">
          <mxGeometry relative="1" as="geometry">
            <mxPoint x="470.12" y="-500" as="sourcePoint" />
            <mxPoint x="420.12" y="-495" as="targetPoint" />
          </mxGeometry>
        </mxCell>
        <mxCell id="6qOEAzcNz2W8X_dl7vt0-187" value="5..[true ]login 성공" style="verticalAlign=bottom;endArrow=block;shadow=0;strokeWidth=1;" edge="1" parent="1">
          <mxGeometry relative="1" as="geometry">
            <mxPoint x="645.12" y="-393" as="sourcePoint" />
            <mxPoint x="164.12" y="-393" as="targetPoint" />
          </mxGeometry>
        </mxCell>
        <object label="user" id="6qOEAzcNz2W8X_dl7vt0-188">
          <mxCell style="shape=umlActor;verticalLabelPosition=bottom;verticalAlign=top;html=1;" vertex="1" parent="1">
            <mxGeometry x="130.12" y="-590" width="30" height="60" as="geometry" />
          </mxCell>
        </object>
        <mxCell id="6qOEAzcNz2W8X_dl7vt0-189" value="" style="endArrow=none;dashed=1;html=1;" edge="1" parent="1" source="6qOEAzcNz2W8X_dl7vt0-201" target="6qOEAzcNz2W8X_dl7vt0-188">
          <mxGeometry width="50" height="50" relative="1" as="geometry">
            <mxPoint x="145.12" y="-290" as="sourcePoint" />
            <mxPoint x="150.12" y="-510" as="targetPoint" />
          </mxGeometry>
        </mxCell>
        <mxCell id="6qOEAzcNz2W8X_dl7vt0-190" value="로그인창" style="shape=umlLifeline;perimeter=lifelinePerimeter;container=1;collapsible=0;recursiveResize=0;rounded=0;shadow=0;strokeWidth=1;" vertex="1" parent="1">
          <mxGeometry x="380.12" y="-580" width="100" height="300" as="geometry" />
        </mxCell>
        <mxCell id="6qOEAzcNz2W8X_dl7vt0-191" value="" style="points=[];perimeter=orthogonalPerimeter;rounded=0;shadow=0;strokeWidth=1;" vertex="1" parent="6qOEAzcNz2W8X_dl7vt0-190">
          <mxGeometry x="45" y="70" width="10" height="30" as="geometry" />
        </mxCell>
        <mxCell id="6qOEAzcNz2W8X_dl7vt0-192" value="3.id,pwd입력" style="verticalAlign=bottom;endArrow=block;shadow=0;strokeWidth=1;" edge="1" parent="1">
          <mxGeometry relative="1" as="geometry">
            <mxPoint x="440.12" y="-494" as="sourcePoint" />
            <mxPoint x="640.12" y="-494" as="targetPoint" />
          </mxGeometry>
        </mxCell>
        <mxCell id="6qOEAzcNz2W8X_dl7vt0-193" value="alt" style="shape=umlFrame;whiteSpace=wrap;html=1;gradientColor=#ffffff;" vertex="1" parent="1">
          <mxGeometry x="110" y="-450" width="560" height="180" as="geometry" />
        </mxCell>
        <mxCell id="6qOEAzcNz2W8X_dl7vt0-194" value="" style="edgeStyle=elbowEdgeStyle;elbow=horizontal;endArrow=classic;html=1;entryX=1;entryY=0.075;entryDx=0;entryDy=0;entryPerimeter=0;" edge="1" parent="1" target="6qOEAzcNz2W8X_dl7vt0-184">
          <mxGeometry width="50" height="50" relative="1" as="geometry">
            <mxPoint x="660.12" y="-490" as="sourcePoint" />
            <mxPoint x="680.12" y="-410" as="targetPoint" />
            <Array as="points">
              <mxPoint x="730.12" y="-340" />
            </Array>
          </mxGeometry>
        </mxCell>
        <mxCell id="6qOEAzcNz2W8X_dl7vt0-195" value="4.일치여부확인" style="text;html=1;strokeColor=none;fillColor=none;align=center;verticalAlign=middle;whiteSpace=wrap;rounded=0;" vertex="1" parent="1">
          <mxGeometry x="640.12" y="-470" width="100" height="20" as="geometry" />
        </mxCell>
        <mxCell id="6qOEAzcNz2W8X_dl7vt0-196" value="" style="points=[];perimeter=orthogonalPerimeter;rounded=0;shadow=0;strokeWidth=1;" vertex="1" parent="1">
          <mxGeometry x="140.12" y="-350" width="10" height="30" as="geometry" />
        </mxCell>
        <mxCell id="6qOEAzcNz2W8X_dl7vt0-197" value="" style="endArrow=none;dashed=1;html=1;strokeWidth=2;exitX=-0.002;exitY=0.439;exitDx=0;exitDy=0;exitPerimeter=0;" edge="1" parent="1" source="6qOEAzcNz2W8X_dl7vt0-193">
          <mxGeometry width="50" height="50" relative="1" as="geometry">
            <mxPoint x="120.12" y="-380" as="sourcePoint" />
            <mxPoint x="676.12" y="-370" as="targetPoint" />
          </mxGeometry>
        </mxCell>
        <mxCell id="6qOEAzcNz2W8X_dl7vt0-198" value="&lt;h1&gt;판매회원 로그인 시퀀스 다이어그램&lt;/h1&gt;" style="text;html=1;strokeColor=none;fillColor=none;spacing=5;spacingTop=-20;whiteSpace=wrap;overflow=hidden;rounded=0;" vertex="1" parent="1">
          <mxGeometry x="200.12" y="-660" width="440" height="50" as="geometry" />
        </mxCell>
        <mxCell id="6qOEAzcNz2W8X_dl7vt0-199" value="" style="endArrow=none;dashed=1;html=1;" edge="1" parent="1" source="6qOEAzcNz2W8X_dl7vt0-201">
          <mxGeometry width="50" height="50" relative="1" as="geometry">
            <mxPoint x="144.62" y="-280" as="sourcePoint" />
            <mxPoint x="144.62" y="-400" as="targetPoint" />
          </mxGeometry>
        </mxCell>
        <mxCell id="6qOEAzcNz2W8X_dl7vt0-200" value="6.[false] ]login 실패" style="verticalAlign=bottom;endArrow=block;shadow=0;strokeWidth=1;" edge="1" parent="1">
          <mxGeometry relative="1" as="geometry">
            <mxPoint x="648.12" y="-330" as="sourcePoint" />
            <mxPoint x="159.12" y="-330" as="targetPoint" />
          </mxGeometry>
        </mxCell>
        <mxCell id="6qOEAzcNz2W8X_dl7vt0-201" value="" style="points=[];perimeter=orthogonalPerimeter;rounded=0;shadow=0;strokeWidth=1;" vertex="1" parent="1">
          <mxGeometry x="140.12" y="-410" width="10" height="30" as="geometry" />
        </mxCell>
        <mxCell id="6qOEAzcNz2W8X_dl7vt0-202" value="" style="endArrow=none;dashed=1;html=1;" edge="1" parent="1" target="6qOEAzcNz2W8X_dl7vt0-201">
          <mxGeometry width="50" height="50" relative="1" as="geometry">
            <mxPoint x="144.62" y="-280" as="sourcePoint" />
            <mxPoint x="144.62" y="-400" as="targetPoint" />
          </mxGeometry>
        </mxCell>
        <mxCell id="6qOEAzcNz2W8X_dl7vt0-203" value="[else]" style="text;html=1;strokeColor=none;fillColor=none;align=center;verticalAlign=middle;whiteSpace=wrap;rounded=0;" vertex="1" parent="1">
          <mxGeometry x="150.12" y="-370" width="51" height="20" as="geometry" />
        </mxCell>
        <mxCell id="6qOEAzcNz2W8X_dl7vt0-177" value="[ if member table의 정보와 일치하는가?]" style="text;html=1;strokeColor=none;fillColor=none;align=center;verticalAlign=middle;whiteSpace=wrap;rounded=0;" vertex="1" parent="1">
          <mxGeometry x="150" y="-850" width="310" height="20" as="geometry" />
        </mxCell>
        <mxCell id="6qOEAzcNz2W8X_dl7vt0-182" value="[ if seller table의 정보와 일치하는가?]" style="text;html=1;strokeColor=none;fillColor=none;align=center;verticalAlign=middle;whiteSpace=wrap;rounded=0;" vertex="1" parent="1">
          <mxGeometry x="160" y="-430" width="310" height="20" as="geometry" />
        </mxCell>
        <mxCell id="6qOEAzcNz2W8X_dl7vt0-205" value="&lt;h1&gt;이벤트 게시판 시퀀스 다이어그램&lt;/h1&gt;" style="text;html=1;strokeColor=none;fillColor=none;spacing=5;spacingTop=-20;whiteSpace=wrap;overflow=hidden;rounded=0;" vertex="1" parent="1">
          <mxGeometry x="219" y="680" width="440" height="50" as="geometry" />
        </mxCell>
        <mxCell id="6qOEAzcNz2W8X_dl7vt0-209" value="1.이벤트 게시글 작성" style="verticalAlign=bottom;endArrow=block;shadow=0;strokeWidth=1;" edge="1" parent="1">
          <mxGeometry relative="1" as="geometry">
            <mxPoint x="110" y="860" as="sourcePoint" />
            <mxPoint x="225.12" y="859.5" as="targetPoint" />
          </mxGeometry>
        </mxCell>
        <mxCell id="6qOEAzcNz2W8X_dl7vt0-210" value="2.글정보 저장" style="verticalAlign=bottom;endArrow=block;shadow=0;strokeWidth=1;" edge="1" parent="1">
          <mxGeometry relative="1" as="geometry">
            <mxPoint x="247.44" y="860" as="sourcePoint" />
            <mxPoint x="362.5599999999999" y="859.5" as="targetPoint" />
          </mxGeometry>
        </mxCell>
        <mxCell id="6qOEAzcNz2W8X_dl7vt0-212" value="" style="points=[];perimeter=orthogonalPerimeter;rounded=0;shadow=0;strokeWidth=1;" vertex="1" parent="1">
          <mxGeometry x="550" y="900" width="10" height="90" as="geometry" />
        </mxCell>
        <mxCell id="6qOEAzcNz2W8X_dl7vt0-214" value="3.admin 에게 글정보 리스트 전송" style="verticalAlign=bottom;endArrow=block;shadow=0;strokeWidth=1;" edge="1" parent="1">
          <mxGeometry relative="1" as="geometry">
            <mxPoint x="379" y="910" as="sourcePoint" />
            <mxPoint x="550" y="910" as="targetPoint" />
          </mxGeometry>
        </mxCell>
        <mxCell id="6qOEAzcNz2W8X_dl7vt0-219" value="4.권한 허용(allow=1)" style="verticalAlign=bottom;endArrow=block;shadow=0;strokeWidth=1;" edge="1" parent="1">
          <mxGeometry x="0.0121" y="-2" relative="1" as="geometry">
            <mxPoint x="548.62" y="972" as="sourcePoint" />
            <mxPoint x="373.5" y="972" as="targetPoint" />
            <Array as="points">
              <mxPoint x="510" y="972" />
              <mxPoint x="468.5" y="972" />
            </Array>
            <mxPoint as="offset" />
          </mxGeometry>
        </mxCell>
        <mxCell id="6qOEAzcNz2W8X_dl7vt0-223" value="5.글정보 전송" style="verticalAlign=bottom;endArrow=block;shadow=0;strokeWidth=1;" edge="1" parent="1" target="6qOEAzcNz2W8X_dl7vt0-36">
          <mxGeometry relative="1" as="geometry">
            <mxPoint x="379" y="1030" as="sourcePoint" />
            <mxPoint x="550" y="1030" as="targetPoint" />
          </mxGeometry>
        </mxCell>
        <mxCell id="6qOEAzcNz2W8X_dl7vt0-224" value="" style="edgeStyle=orthogonalEdgeStyle;rounded=0;orthogonalLoop=1;jettySize=auto;html=1;dashed=1;" edge="1" parent="1" source="6qOEAzcNz2W8X_dl7vt0-225" target="6qOEAzcNz2W8X_dl7vt0-233">
          <mxGeometry relative="1" as="geometry" />
        </mxCell>
        <mxCell id="6qOEAzcNz2W8X_dl7vt0-225" value="판매회원&lt;br&gt;" style="shape=umlActor;verticalLabelPosition=bottom;verticalAlign=top;html=1;gradientColor=#ffffff;" vertex="1" parent="1">
          <mxGeometry x="84" y="1170" width="30" height="60" as="geometry" />
        </mxCell>
        <mxCell id="6qOEAzcNz2W8X_dl7vt0-226" value="관리자&lt;br&gt;" style="shape=umlActor;verticalLabelPosition=bottom;verticalAlign=top;html=1;gradientColor=#ffffff;" vertex="1" parent="1">
          <mxGeometry x="540" y="1180" width="30" height="60" as="geometry" />
        </mxCell>
        <mxCell id="6qOEAzcNz2W8X_dl7vt0-227" value="" style="endArrow=none;dashed=1;html=1;" edge="1" parent="1" source="6qOEAzcNz2W8X_dl7vt0-233">
          <mxGeometry width="50" height="50" relative="1" as="geometry">
            <mxPoint x="98.5" y="1490" as="sourcePoint" />
            <mxPoint x="98.5" y="1250" as="targetPoint" />
          </mxGeometry>
        </mxCell>
        <mxCell id="6qOEAzcNz2W8X_dl7vt0-228" value="" style="endArrow=none;dashed=1;html=1;" edge="1" parent="1">
          <mxGeometry width="50" height="50" relative="1" as="geometry">
            <mxPoint x="554.5" y="1320" as="sourcePoint" />
            <mxPoint x="554.5" y="1260" as="targetPoint" />
          </mxGeometry>
        </mxCell>
        <mxCell id="6qOEAzcNz2W8X_dl7vt0-229" value="글쓰기" style="shape=umlLifeline;perimeter=lifelinePerimeter;container=1;collapsible=0;recursiveResize=0;rounded=0;shadow=0;strokeWidth=1;" vertex="1" parent="1">
          <mxGeometry x="184" y="1190" width="100" height="300" as="geometry" />
        </mxCell>
        <mxCell id="6qOEAzcNz2W8X_dl7vt0-230" value="" style="points=[];perimeter=orthogonalPerimeter;rounded=0;shadow=0;strokeWidth=1;" vertex="1" parent="6qOEAzcNz2W8X_dl7vt0-229">
          <mxGeometry x="45" y="70" width="10" height="40" as="geometry" />
        </mxCell>
        <mxCell id="6qOEAzcNz2W8X_dl7vt0-231" value="출력" style="shape=umlLifeline;perimeter=lifelinePerimeter;container=1;collapsible=0;recursiveResize=0;rounded=0;shadow=0;strokeWidth=1;" vertex="1" parent="1">
          <mxGeometry x="640.12" y="1190" width="100" height="300" as="geometry" />
        </mxCell>
        <mxCell id="6qOEAzcNz2W8X_dl7vt0-232" value="" style="points=[];perimeter=orthogonalPerimeter;rounded=0;shadow=0;strokeWidth=1;" vertex="1" parent="6qOEAzcNz2W8X_dl7vt0-231">
          <mxGeometry x="43.88" y="230" width="10" height="40" as="geometry" />
        </mxCell>
        <mxCell id="6qOEAzcNz2W8X_dl7vt0-233" value="" style="points=[];perimeter=orthogonalPerimeter;rounded=0;shadow=0;strokeWidth=1;" vertex="1" parent="1">
          <mxGeometry x="94" y="1260" width="10" height="40" as="geometry" />
        </mxCell>
        <mxCell id="6qOEAzcNz2W8X_dl7vt0-234" value="" style="endArrow=none;dashed=1;html=1;" edge="1" parent="1" target="6qOEAzcNz2W8X_dl7vt0-233">
          <mxGeometry width="50" height="50" relative="1" as="geometry">
            <mxPoint x="98.5" y="1490" as="sourcePoint" />
            <mxPoint x="98.5" y="1250" as="targetPoint" />
          </mxGeometry>
        </mxCell>
        <mxCell id="6qOEAzcNz2W8X_dl7vt0-235" value="" style="endArrow=none;dashed=1;html=1;" edge="1" parent="1">
          <mxGeometry width="50" height="50" relative="1" as="geometry">
            <mxPoint x="554.5" y="1500" as="sourcePoint" />
            <mxPoint x="554.5" y="1360" as="targetPoint" />
          </mxGeometry>
        </mxCell>
        <mxCell id="6qOEAzcNz2W8X_dl7vt0-236" value="DB" style="shape=umlLifeline;perimeter=lifelinePerimeter;container=1;collapsible=0;recursiveResize=0;rounded=0;shadow=0;strokeWidth=1;" vertex="1" parent="1">
          <mxGeometry x="314" y="1190" width="100" height="300" as="geometry" />
        </mxCell>
        <mxCell id="6qOEAzcNz2W8X_dl7vt0-237" value="" style="points=[];perimeter=orthogonalPerimeter;rounded=0;shadow=0;strokeWidth=1;" vertex="1" parent="6qOEAzcNz2W8X_dl7vt0-236">
          <mxGeometry x="45" y="70" width="10" height="40" as="geometry" />
        </mxCell>
        <mxCell id="6qOEAzcNz2W8X_dl7vt0-238" value="" style="points=[];perimeter=orthogonalPerimeter;rounded=0;shadow=0;strokeWidth=1;" vertex="1" parent="6qOEAzcNz2W8X_dl7vt0-236">
          <mxGeometry x="45" y="120" width="10" height="50" as="geometry" />
        </mxCell>
        <mxCell id="6qOEAzcNz2W8X_dl7vt0-239" value="" style="points=[];perimeter=orthogonalPerimeter;rounded=0;shadow=0;strokeWidth=1;" vertex="1" parent="6qOEAzcNz2W8X_dl7vt0-236">
          <mxGeometry x="45" y="180" width="10" height="90" as="geometry" />
        </mxCell>
        <mxCell id="6qOEAzcNz2W8X_dl7vt0-240" value="&lt;h1&gt;팔로우기능 시퀀스 다이어그램&lt;/h1&gt;" style="text;html=1;strokeColor=none;fillColor=none;spacing=5;spacingTop=-20;whiteSpace=wrap;overflow=hidden;rounded=0;" vertex="1" parent="1">
          <mxGeometry x="230" y="1100" width="440" height="50" as="geometry" />
        </mxCell>
        <mxCell id="6qOEAzcNz2W8X_dl7vt0-241" value="1.이벤트 게시글 작성" style="verticalAlign=bottom;endArrow=block;shadow=0;strokeWidth=1;" edge="1" parent="1">
          <mxGeometry relative="1" as="geometry">
            <mxPoint x="110" y="1280" as="sourcePoint" />
            <mxPoint x="225.1199999999999" y="1279.5" as="targetPoint" />
          </mxGeometry>
        </mxCell>
        <mxCell id="6qOEAzcNz2W8X_dl7vt0-242" value="2.글정보 저장" style="verticalAlign=bottom;endArrow=block;shadow=0;strokeWidth=1;" edge="1" parent="1">
          <mxGeometry relative="1" as="geometry">
            <mxPoint x="247.44000000000005" y="1280" as="sourcePoint" />
            <mxPoint x="362.55999999999995" y="1279.5" as="targetPoint" />
          </mxGeometry>
        </mxCell>
        <mxCell id="6qOEAzcNz2W8X_dl7vt0-243" value="" style="points=[];perimeter=orthogonalPerimeter;rounded=0;shadow=0;strokeWidth=1;" vertex="1" parent="1">
          <mxGeometry x="550" y="1320" width="10" height="90" as="geometry" />
        </mxCell>
        <mxCell id="6qOEAzcNz2W8X_dl7vt0-244" value="3.admin 에게 글정보 리스트 전송" style="verticalAlign=bottom;endArrow=block;shadow=0;strokeWidth=1;" edge="1" parent="1">
          <mxGeometry relative="1" as="geometry">
            <mxPoint x="379" y="1330" as="sourcePoint" />
            <mxPoint x="550" y="1330" as="targetPoint" />
          </mxGeometry>
        </mxCell>
        <mxCell id="6qOEAzcNz2W8X_dl7vt0-245" value="4.권한 허용(allow=1)" style="verticalAlign=bottom;endArrow=block;shadow=0;strokeWidth=1;" edge="1" parent="1">
          <mxGeometry x="0.0121" y="-2" relative="1" as="geometry">
            <mxPoint x="548.6199999999999" y="1392" as="sourcePoint" />
            <mxPoint x="373.5" y="1392" as="targetPoint" />
            <Array as="points">
              <mxPoint x="510" y="1392" />
              <mxPoint x="468.5" y="1392" />
            </Array>
            <mxPoint as="offset" />
          </mxGeometry>
        </mxCell>
        <mxCell id="6qOEAzcNz2W8X_dl7vt0-246" value="5.글정보 전송" style="verticalAlign=bottom;endArrow=block;shadow=0;strokeWidth=1;" edge="1" parent="1" target="6qOEAzcNz2W8X_dl7vt0-231">
          <mxGeometry relative="1" as="geometry">
            <mxPoint x="379" y="1450" as="sourcePoint" />
            <mxPoint x="550" y="1450" as="targetPoint" />
          </mxGeometry>
        </mxCell>
        <mxCell id="6qOEAzcNz2W8X_dl7vt0-248" value="new_member" style="shape=umlLifeline;perimeter=lifelinePerimeter;container=1;collapsible=0;recursiveResize=0;rounded=0;shadow=0;strokeWidth=1;" vertex="1" parent="1">
          <mxGeometry x="155.12" y="1610" width="100" height="300" as="geometry" />
        </mxCell>
        <mxCell id="6qOEAzcNz2W8X_dl7vt0-249" value="" style="points=[];perimeter=orthogonalPerimeter;rounded=0;shadow=0;strokeWidth=1;" vertex="1" parent="6qOEAzcNz2W8X_dl7vt0-248">
          <mxGeometry x="45" y="70" width="10" height="30" as="geometry" />
        </mxCell>
        <mxCell id="6qOEAzcNz2W8X_dl7vt0-250" value="1.회원가입신청" style="verticalAlign=bottom;startArrow=oval;endArrow=block;startSize=8;shadow=0;strokeWidth=1;" edge="1" parent="6qOEAzcNz2W8X_dl7vt0-248" target="6qOEAzcNz2W8X_dl7vt0-249">
          <mxGeometry relative="1" as="geometry">
            <mxPoint x="-60" y="70" as="sourcePoint" />
          </mxGeometry>
        </mxCell>
        <mxCell id="6qOEAzcNz2W8X_dl7vt0-251" value="DB" style="shape=umlLifeline;perimeter=lifelinePerimeter;container=1;collapsible=0;recursiveResize=0;rounded=0;shadow=0;strokeWidth=1;" vertex="1" parent="1">
          <mxGeometry x="545.12" y="1610" width="100" height="300" as="geometry" />
        </mxCell>
        <mxCell id="6qOEAzcNz2W8X_dl7vt0-252" value="" style="points=[];perimeter=orthogonalPerimeter;rounded=0;shadow=0;strokeWidth=1;" vertex="1" parent="6qOEAzcNz2W8X_dl7vt0-251">
          <mxGeometry x="45" y="140" width="10" height="120" as="geometry" />
        </mxCell>
        <mxCell id="6qOEAzcNz2W8X_dl7vt0-253" value="" style="points=[];perimeter=orthogonalPerimeter;rounded=0;shadow=0;strokeWidth=1;" vertex="1" parent="6qOEAzcNz2W8X_dl7vt0-251">
          <mxGeometry x="45" y="70" width="10" height="40" as="geometry" />
        </mxCell>
        <mxCell id="6qOEAzcNz2W8X_dl7vt0-254" value="7.판매 회원가입 성공" style="verticalAlign=bottom;endArrow=block;shadow=0;strokeWidth=1;" edge="1" parent="6qOEAzcNz2W8X_dl7vt0-251" source="6qOEAzcNz2W8X_dl7vt0-262">
          <mxGeometry relative="1" as="geometry">
            <mxPoint x="175" y="250" as="sourcePoint" />
            <mxPoint x="-440" y="250" as="targetPoint" />
          </mxGeometry>
        </mxCell>
        <mxCell id="6qOEAzcNz2W8X_dl7vt0-255" value="2.판매회원 선택" style="verticalAlign=bottom;endArrow=block;shadow=0;strokeWidth=1;" edge="1" parent="1" source="6qOEAzcNz2W8X_dl7vt0-249">
          <mxGeometry relative="1" as="geometry">
            <mxPoint x="415.12" y="1690" as="sourcePoint" />
            <mxPoint x="365.12" y="1695" as="targetPoint" />
          </mxGeometry>
        </mxCell>
        <mxCell id="6qOEAzcNz2W8X_dl7vt0-256" value="5.중복된 ID 에러메세지" style="verticalAlign=bottom;endArrow=block;shadow=0;strokeWidth=1;" edge="1" parent="1" source="6qOEAzcNz2W8X_dl7vt0-252">
          <mxGeometry relative="1" as="geometry">
            <mxPoint x="380.12" y="1730" as="sourcePoint" />
            <mxPoint x="385.12" y="1770" as="targetPoint" />
          </mxGeometry>
        </mxCell>
        <object label="user" id="6qOEAzcNz2W8X_dl7vt0-257">
          <mxCell style="shape=umlActor;verticalLabelPosition=bottom;verticalAlign=top;html=1;" vertex="1" parent="1">
            <mxGeometry x="75.12" y="1600" width="30" height="60" as="geometry" />
          </mxCell>
        </object>
        <mxCell id="6qOEAzcNz2W8X_dl7vt0-258" value="" style="endArrow=none;dashed=1;html=1;" edge="1" parent="1" target="6qOEAzcNz2W8X_dl7vt0-257">
          <mxGeometry width="50" height="50" relative="1" as="geometry">
            <mxPoint x="90.12" y="1900" as="sourcePoint" />
            <mxPoint x="95.12" y="1680" as="targetPoint" />
          </mxGeometry>
        </mxCell>
        <mxCell id="6qOEAzcNz2W8X_dl7vt0-259" value="판매회원가입" style="shape=umlLifeline;perimeter=lifelinePerimeter;container=1;collapsible=0;recursiveResize=0;rounded=0;shadow=0;strokeWidth=1;" vertex="1" parent="1">
          <mxGeometry x="325.12" y="1610" width="100" height="300" as="geometry" />
        </mxCell>
        <mxCell id="6qOEAzcNz2W8X_dl7vt0-260" value="" style="points=[];perimeter=orthogonalPerimeter;rounded=0;shadow=0;strokeWidth=1;" vertex="1" parent="6qOEAzcNz2W8X_dl7vt0-259">
          <mxGeometry x="45" y="70" width="10" height="30" as="geometry" />
        </mxCell>
        <mxCell id="6qOEAzcNz2W8X_dl7vt0-261" value="3.가입 정보 저장" style="verticalAlign=bottom;endArrow=block;shadow=0;strokeWidth=1;" edge="1" parent="1">
          <mxGeometry relative="1" as="geometry">
            <mxPoint x="385.12" y="1696" as="sourcePoint" />
            <mxPoint x="585.12" y="1696" as="targetPoint" />
          </mxGeometry>
        </mxCell>
        <mxCell id="6qOEAzcNz2W8X_dl7vt0-262" value="seller" style="shape=umlLifeline;perimeter=lifelinePerimeter;container=1;collapsible=0;recursiveResize=0;rounded=0;shadow=0;strokeWidth=1;" vertex="1" parent="1">
          <mxGeometry x="695.12" y="1610" width="100" height="300" as="geometry" />
        </mxCell>
        <mxCell id="6qOEAzcNz2W8X_dl7vt0-263" value="" style="points=[];perimeter=orthogonalPerimeter;rounded=0;shadow=0;strokeWidth=1;" vertex="1" parent="6qOEAzcNz2W8X_dl7vt0-262">
          <mxGeometry x="45" y="230" width="10" height="30" as="geometry" />
        </mxCell>
        <mxCell id="6qOEAzcNz2W8X_dl7vt0-264" value="alt" style="shape=umlFrame;whiteSpace=wrap;html=1;gradientColor=#ffffff;" vertex="1" parent="1">
          <mxGeometry x="75.12" y="1750" width="710" height="180" as="geometry" />
        </mxCell>
        <mxCell id="6qOEAzcNz2W8X_dl7vt0-265" value="" style="edgeStyle=elbowEdgeStyle;elbow=horizontal;endArrow=classic;html=1;entryX=1;entryY=0.075;entryDx=0;entryDy=0;entryPerimeter=0;" edge="1" parent="1" target="6qOEAzcNz2W8X_dl7vt0-252">
          <mxGeometry width="50" height="50" relative="1" as="geometry">
            <mxPoint x="605.12" y="1700" as="sourcePoint" />
            <mxPoint x="625.12" y="1780" as="targetPoint" />
            <Array as="points">
              <mxPoint x="675.12" y="1850" />
            </Array>
          </mxGeometry>
        </mxCell>
        <mxCell id="6qOEAzcNz2W8X_dl7vt0-266" value="4.Id중복여부 확인" style="text;html=1;strokeColor=none;fillColor=none;align=center;verticalAlign=middle;whiteSpace=wrap;rounded=0;" vertex="1" parent="1">
          <mxGeometry x="585.12" y="1720" width="100" height="20" as="geometry" />
        </mxCell>
        <mxCell id="6qOEAzcNz2W8X_dl7vt0-267" value="" style="points=[];perimeter=orthogonalPerimeter;rounded=0;shadow=0;strokeWidth=1;" vertex="1" parent="1">
          <mxGeometry x="370.12" y="1760" width="10" height="30" as="geometry" />
        </mxCell>
        <mxCell id="6qOEAzcNz2W8X_dl7vt0-268" value="" style="points=[];perimeter=orthogonalPerimeter;rounded=0;shadow=0;strokeWidth=1;" vertex="1" parent="1">
          <mxGeometry x="85.12" y="1840" width="10" height="30" as="geometry" />
        </mxCell>
        <mxCell id="6qOEAzcNz2W8X_dl7vt0-269" value="" style="endArrow=none;dashed=1;html=1;strokeWidth=2;entryX=1.001;entryY=0.339;entryDx=0;entryDy=0;entryPerimeter=0;" edge="1" parent="1" target="6qOEAzcNz2W8X_dl7vt0-264">
          <mxGeometry width="50" height="50" relative="1" as="geometry">
            <mxPoint x="65.12" y="1810" as="sourcePoint" />
            <mxPoint x="765.12" y="1810" as="targetPoint" />
          </mxGeometry>
        </mxCell>
        <mxCell id="6qOEAzcNz2W8X_dl7vt0-270" value="6.가입정보 저장" style="verticalAlign=bottom;endArrow=block;shadow=0;strokeWidth=1;" edge="1" parent="1">
          <mxGeometry relative="1" as="geometry">
            <mxPoint x="605.12" y="1800" as="sourcePoint" />
            <mxPoint x="745.12" y="1800" as="targetPoint" />
          </mxGeometry>
        </mxCell>
        <mxCell id="6qOEAzcNz2W8X_dl7vt0-271" value="&lt;h1&gt;찜&amp;amp;좋아요 시퀀스 다이어그램&lt;/h1&gt;" style="text;html=1;strokeColor=none;fillColor=none;spacing=5;spacingTop=-20;whiteSpace=wrap;overflow=hidden;rounded=0;" vertex="1" parent="1">
          <mxGeometry x="219" y="1530" width="440" height="50" as="geometry" />
        </mxCell>
        <mxCell id="6qOEAzcNz2W8X_dl7vt0-272" value="new_member" style="shape=umlLifeline;perimeter=lifelinePerimeter;container=1;collapsible=0;recursiveResize=0;rounded=0;shadow=0;strokeWidth=1;" vertex="1" parent="1">
          <mxGeometry x="145.12" y="2060" width="100" height="300" as="geometry" />
        </mxCell>
        <mxCell id="6qOEAzcNz2W8X_dl7vt0-273" value="" style="points=[];perimeter=orthogonalPerimeter;rounded=0;shadow=0;strokeWidth=1;" vertex="1" parent="6qOEAzcNz2W8X_dl7vt0-272">
          <mxGeometry x="45" y="70" width="10" height="30" as="geometry" />
        </mxCell>
        <mxCell id="6qOEAzcNz2W8X_dl7vt0-274" value="1.회원가입신청" style="verticalAlign=bottom;startArrow=oval;endArrow=block;startSize=8;shadow=0;strokeWidth=1;" edge="1" parent="6qOEAzcNz2W8X_dl7vt0-272" target="6qOEAzcNz2W8X_dl7vt0-273">
          <mxGeometry relative="1" as="geometry">
            <mxPoint x="-60" y="70" as="sourcePoint" />
          </mxGeometry>
        </mxCell>
        <mxCell id="6qOEAzcNz2W8X_dl7vt0-275" value="DB" style="shape=umlLifeline;perimeter=lifelinePerimeter;container=1;collapsible=0;recursiveResize=0;rounded=0;shadow=0;strokeWidth=1;" vertex="1" parent="1">
          <mxGeometry x="535.12" y="2060" width="100" height="300" as="geometry" />
        </mxCell>
        <mxCell id="6qOEAzcNz2W8X_dl7vt0-276" value="" style="points=[];perimeter=orthogonalPerimeter;rounded=0;shadow=0;strokeWidth=1;" vertex="1" parent="6qOEAzcNz2W8X_dl7vt0-275">
          <mxGeometry x="45" y="140" width="10" height="120" as="geometry" />
        </mxCell>
        <mxCell id="6qOEAzcNz2W8X_dl7vt0-277" value="" style="points=[];perimeter=orthogonalPerimeter;rounded=0;shadow=0;strokeWidth=1;" vertex="1" parent="6qOEAzcNz2W8X_dl7vt0-275">
          <mxGeometry x="45" y="70" width="10" height="40" as="geometry" />
        </mxCell>
        <mxCell id="6qOEAzcNz2W8X_dl7vt0-278" value="7.판매 회원가입 성공" style="verticalAlign=bottom;endArrow=block;shadow=0;strokeWidth=1;" edge="1" parent="6qOEAzcNz2W8X_dl7vt0-275" source="6qOEAzcNz2W8X_dl7vt0-286">
          <mxGeometry relative="1" as="geometry">
            <mxPoint x="175" y="250" as="sourcePoint" />
            <mxPoint x="-440" y="250" as="targetPoint" />
          </mxGeometry>
        </mxCell>
        <mxCell id="6qOEAzcNz2W8X_dl7vt0-279" value="2.판매회원 선택" style="verticalAlign=bottom;endArrow=block;shadow=0;strokeWidth=1;" edge="1" parent="1" source="6qOEAzcNz2W8X_dl7vt0-273">
          <mxGeometry relative="1" as="geometry">
            <mxPoint x="405.12" y="2140" as="sourcePoint" />
            <mxPoint x="355.1199999999999" y="2145" as="targetPoint" />
          </mxGeometry>
        </mxCell>
        <mxCell id="6qOEAzcNz2W8X_dl7vt0-280" value="5.중복된 ID 에러메세지" style="verticalAlign=bottom;endArrow=block;shadow=0;strokeWidth=1;" edge="1" parent="1" source="6qOEAzcNz2W8X_dl7vt0-276">
          <mxGeometry relative="1" as="geometry">
            <mxPoint x="370.12" y="2180" as="sourcePoint" />
            <mxPoint x="375.1199999999999" y="2220" as="targetPoint" />
          </mxGeometry>
        </mxCell>
        <object label="user" id="6qOEAzcNz2W8X_dl7vt0-281">
          <mxCell style="shape=umlActor;verticalLabelPosition=bottom;verticalAlign=top;html=1;" vertex="1" parent="1">
            <mxGeometry x="65.12" y="2050" width="30" height="60" as="geometry" />
          </mxCell>
        </object>
        <mxCell id="6qOEAzcNz2W8X_dl7vt0-282" value="" style="endArrow=none;dashed=1;html=1;" edge="1" parent="1" target="6qOEAzcNz2W8X_dl7vt0-281">
          <mxGeometry width="50" height="50" relative="1" as="geometry">
            <mxPoint x="80.11999999999989" y="2350" as="sourcePoint" />
            <mxPoint x="85.12" y="2130" as="targetPoint" />
          </mxGeometry>
        </mxCell>
        <mxCell id="6qOEAzcNz2W8X_dl7vt0-283" value="판매회원가입" style="shape=umlLifeline;perimeter=lifelinePerimeter;container=1;collapsible=0;recursiveResize=0;rounded=0;shadow=0;strokeWidth=1;" vertex="1" parent="1">
          <mxGeometry x="315.12" y="2060" width="100" height="300" as="geometry" />
        </mxCell>
        <mxCell id="6qOEAzcNz2W8X_dl7vt0-284" value="" style="points=[];perimeter=orthogonalPerimeter;rounded=0;shadow=0;strokeWidth=1;" vertex="1" parent="6qOEAzcNz2W8X_dl7vt0-283">
          <mxGeometry x="45" y="70" width="10" height="30" as="geometry" />
        </mxCell>
        <mxCell id="6qOEAzcNz2W8X_dl7vt0-285" value="3.가입 정보 저장" style="verticalAlign=bottom;endArrow=block;shadow=0;strokeWidth=1;" edge="1" parent="1">
          <mxGeometry relative="1" as="geometry">
            <mxPoint x="375.1199999999999" y="2146" as="sourcePoint" />
            <mxPoint x="575.1199999999999" y="2146" as="targetPoint" />
          </mxGeometry>
        </mxCell>
        <mxCell id="6qOEAzcNz2W8X_dl7vt0-286" value="seller" style="shape=umlLifeline;perimeter=lifelinePerimeter;container=1;collapsible=0;recursiveResize=0;rounded=0;shadow=0;strokeWidth=1;" vertex="1" parent="1">
          <mxGeometry x="685.12" y="2060" width="100" height="300" as="geometry" />
        </mxCell>
        <mxCell id="6qOEAzcNz2W8X_dl7vt0-287" value="" style="points=[];perimeter=orthogonalPerimeter;rounded=0;shadow=0;strokeWidth=1;" vertex="1" parent="6qOEAzcNz2W8X_dl7vt0-286">
          <mxGeometry x="45" y="230" width="10" height="30" as="geometry" />
        </mxCell>
        <mxCell id="6qOEAzcNz2W8X_dl7vt0-288" value="alt" style="shape=umlFrame;whiteSpace=wrap;html=1;gradientColor=#ffffff;" vertex="1" parent="1">
          <mxGeometry x="65.12" y="2200" width="710" height="180" as="geometry" />
        </mxCell>
        <mxCell id="6qOEAzcNz2W8X_dl7vt0-289" value="" style="edgeStyle=elbowEdgeStyle;elbow=horizontal;endArrow=classic;html=1;entryX=1;entryY=0.075;entryDx=0;entryDy=0;entryPerimeter=0;" edge="1" parent="1" target="6qOEAzcNz2W8X_dl7vt0-276">
          <mxGeometry width="50" height="50" relative="1" as="geometry">
            <mxPoint x="595.1199999999999" y="2150" as="sourcePoint" />
            <mxPoint x="615.12" y="2230" as="targetPoint" />
            <Array as="points">
              <mxPoint x="665.12" y="2300" />
            </Array>
          </mxGeometry>
        </mxCell>
        <mxCell id="6qOEAzcNz2W8X_dl7vt0-290" value="4.Id중복여부 확인" style="text;html=1;strokeColor=none;fillColor=none;align=center;verticalAlign=middle;whiteSpace=wrap;rounded=0;" vertex="1" parent="1">
          <mxGeometry x="575.12" y="2170" width="100" height="20" as="geometry" />
        </mxCell>
        <mxCell id="6qOEAzcNz2W8X_dl7vt0-291" value="" style="points=[];perimeter=orthogonalPerimeter;rounded=0;shadow=0;strokeWidth=1;" vertex="1" parent="1">
          <mxGeometry x="360.12" y="2210" width="10" height="30" as="geometry" />
        </mxCell>
        <mxCell id="6qOEAzcNz2W8X_dl7vt0-292" value="" style="points=[];perimeter=orthogonalPerimeter;rounded=0;shadow=0;strokeWidth=1;" vertex="1" parent="1">
          <mxGeometry x="75.12" y="2290" width="10" height="30" as="geometry" />
        </mxCell>
        <mxCell id="6qOEAzcNz2W8X_dl7vt0-293" value="" style="endArrow=none;dashed=1;html=1;strokeWidth=2;entryX=1.001;entryY=0.339;entryDx=0;entryDy=0;entryPerimeter=0;" edge="1" parent="1" target="6qOEAzcNz2W8X_dl7vt0-288">
          <mxGeometry width="50" height="50" relative="1" as="geometry">
            <mxPoint x="55.11999999999989" y="2260" as="sourcePoint" />
            <mxPoint x="755.12" y="2260" as="targetPoint" />
          </mxGeometry>
        </mxCell>
        <mxCell id="6qOEAzcNz2W8X_dl7vt0-294" value="6.가입정보 저장" style="verticalAlign=bottom;endArrow=block;shadow=0;strokeWidth=1;" edge="1" parent="1">
          <mxGeometry relative="1" as="geometry">
            <mxPoint x="595.1199999999999" y="2250" as="sourcePoint" />
            <mxPoint x="735.1199999999999" y="2250" as="targetPoint" />
          </mxGeometry>
        </mxCell>
        <mxCell id="6qOEAzcNz2W8X_dl7vt0-295" value="&lt;h1&gt;매출관리 시퀀스 다이어그램&lt;/h1&gt;" style="text;html=1;strokeColor=none;fillColor=none;spacing=5;spacingTop=-20;whiteSpace=wrap;overflow=hidden;rounded=0;" vertex="1" parent="1">
          <mxGeometry x="240" y="1980" width="440" height="50" as="geometry" />
        </mxCell>
        <mxCell id="6qOEAzcNz2W8X_dl7vt0-296" value="new_member" style="shape=umlLifeline;perimeter=lifelinePerimeter;container=1;collapsible=0;recursiveResize=0;rounded=0;shadow=0;strokeWidth=1;" vertex="1" parent="1">
          <mxGeometry x="125" y="2520" width="100" height="300" as="geometry" />
        </mxCell>
        <mxCell id="6qOEAzcNz2W8X_dl7vt0-297" value="" style="points=[];perimeter=orthogonalPerimeter;rounded=0;shadow=0;strokeWidth=1;" vertex="1" parent="6qOEAzcNz2W8X_dl7vt0-296">
          <mxGeometry x="45" y="70" width="10" height="30" as="geometry" />
        </mxCell>
        <mxCell id="6qOEAzcNz2W8X_dl7vt0-298" value="1.회원가입신청" style="verticalAlign=bottom;startArrow=oval;endArrow=block;startSize=8;shadow=0;strokeWidth=1;" edge="1" parent="6qOEAzcNz2W8X_dl7vt0-296" target="6qOEAzcNz2W8X_dl7vt0-297">
          <mxGeometry relative="1" as="geometry">
            <mxPoint x="-60" y="70" as="sourcePoint" />
          </mxGeometry>
        </mxCell>
        <mxCell id="6qOEAzcNz2W8X_dl7vt0-299" value="DB" style="shape=umlLifeline;perimeter=lifelinePerimeter;container=1;collapsible=0;recursiveResize=0;rounded=0;shadow=0;strokeWidth=1;" vertex="1" parent="1">
          <mxGeometry x="515" y="2520" width="100" height="300" as="geometry" />
        </mxCell>
        <mxCell id="6qOEAzcNz2W8X_dl7vt0-300" value="" style="points=[];perimeter=orthogonalPerimeter;rounded=0;shadow=0;strokeWidth=1;" vertex="1" parent="6qOEAzcNz2W8X_dl7vt0-299">
          <mxGeometry x="45" y="140" width="10" height="120" as="geometry" />
        </mxCell>
        <mxCell id="6qOEAzcNz2W8X_dl7vt0-301" value="" style="points=[];perimeter=orthogonalPerimeter;rounded=0;shadow=0;strokeWidth=1;" vertex="1" parent="6qOEAzcNz2W8X_dl7vt0-299">
          <mxGeometry x="45" y="70" width="10" height="40" as="geometry" />
        </mxCell>
        <mxCell id="6qOEAzcNz2W8X_dl7vt0-302" value="7.판매 회원가입 성공" style="verticalAlign=bottom;endArrow=block;shadow=0;strokeWidth=1;" edge="1" parent="6qOEAzcNz2W8X_dl7vt0-299" source="6qOEAzcNz2W8X_dl7vt0-310">
          <mxGeometry relative="1" as="geometry">
            <mxPoint x="175" y="250" as="sourcePoint" />
            <mxPoint x="-440" y="250" as="targetPoint" />
          </mxGeometry>
        </mxCell>
        <mxCell id="6qOEAzcNz2W8X_dl7vt0-303" value="2.판매회원 선택" style="verticalAlign=bottom;endArrow=block;shadow=0;strokeWidth=1;" edge="1" parent="1" source="6qOEAzcNz2W8X_dl7vt0-297">
          <mxGeometry relative="1" as="geometry">
            <mxPoint x="385" y="2600" as="sourcePoint" />
            <mxPoint x="334.9999999999999" y="2605" as="targetPoint" />
          </mxGeometry>
        </mxCell>
        <mxCell id="6qOEAzcNz2W8X_dl7vt0-304" value="5.중복된 ID 에러메세지" style="verticalAlign=bottom;endArrow=block;shadow=0;strokeWidth=1;" edge="1" parent="1" source="6qOEAzcNz2W8X_dl7vt0-300">
          <mxGeometry relative="1" as="geometry">
            <mxPoint x="350" y="2640" as="sourcePoint" />
            <mxPoint x="354.9999999999999" y="2680" as="targetPoint" />
          </mxGeometry>
        </mxCell>
        <object label="user" id="6qOEAzcNz2W8X_dl7vt0-305">
          <mxCell style="shape=umlActor;verticalLabelPosition=bottom;verticalAlign=top;html=1;" vertex="1" parent="1">
            <mxGeometry x="45" y="2510" width="30" height="60" as="geometry" />
          </mxCell>
        </object>
        <mxCell id="6qOEAzcNz2W8X_dl7vt0-306" value="" style="endArrow=none;dashed=1;html=1;" edge="1" parent="1" target="6qOEAzcNz2W8X_dl7vt0-305">
          <mxGeometry width="50" height="50" relative="1" as="geometry">
            <mxPoint x="59.999999999999886" y="2810" as="sourcePoint" />
            <mxPoint x="65" y="2590" as="targetPoint" />
          </mxGeometry>
        </mxCell>
        <mxCell id="6qOEAzcNz2W8X_dl7vt0-307" value="판매회원가입" style="shape=umlLifeline;perimeter=lifelinePerimeter;container=1;collapsible=0;recursiveResize=0;rounded=0;shadow=0;strokeWidth=1;" vertex="1" parent="1">
          <mxGeometry x="295" y="2520" width="100" height="300" as="geometry" />
        </mxCell>
        <mxCell id="6qOEAzcNz2W8X_dl7vt0-308" value="" style="points=[];perimeter=orthogonalPerimeter;rounded=0;shadow=0;strokeWidth=1;" vertex="1" parent="6qOEAzcNz2W8X_dl7vt0-307">
          <mxGeometry x="45" y="70" width="10" height="30" as="geometry" />
        </mxCell>
        <mxCell id="6qOEAzcNz2W8X_dl7vt0-309" value="3.가입 정보 저장" style="verticalAlign=bottom;endArrow=block;shadow=0;strokeWidth=1;" edge="1" parent="1">
          <mxGeometry relative="1" as="geometry">
            <mxPoint x="354.9999999999999" y="2606" as="sourcePoint" />
            <mxPoint x="554.9999999999999" y="2606" as="targetPoint" />
          </mxGeometry>
        </mxCell>
        <mxCell id="6qOEAzcNz2W8X_dl7vt0-310" value="seller" style="shape=umlLifeline;perimeter=lifelinePerimeter;container=1;collapsible=0;recursiveResize=0;rounded=0;shadow=0;strokeWidth=1;" vertex="1" parent="1">
          <mxGeometry x="665" y="2520" width="100" height="300" as="geometry" />
        </mxCell>
        <mxCell id="6qOEAzcNz2W8X_dl7vt0-311" value="" style="points=[];perimeter=orthogonalPerimeter;rounded=0;shadow=0;strokeWidth=1;" vertex="1" parent="6qOEAzcNz2W8X_dl7vt0-310">
          <mxGeometry x="45" y="230" width="10" height="30" as="geometry" />
        </mxCell>
        <mxCell id="6qOEAzcNz2W8X_dl7vt0-312" value="alt" style="shape=umlFrame;whiteSpace=wrap;html=1;gradientColor=#ffffff;" vertex="1" parent="1">
          <mxGeometry x="45" y="2660" width="710" height="180" as="geometry" />
        </mxCell>
        <mxCell id="6qOEAzcNz2W8X_dl7vt0-313" value="" style="edgeStyle=elbowEdgeStyle;elbow=horizontal;endArrow=classic;html=1;entryX=1;entryY=0.075;entryDx=0;entryDy=0;entryPerimeter=0;" edge="1" parent="1" target="6qOEAzcNz2W8X_dl7vt0-300">
          <mxGeometry width="50" height="50" relative="1" as="geometry">
            <mxPoint x="574.9999999999999" y="2610" as="sourcePoint" />
            <mxPoint x="595" y="2690" as="targetPoint" />
            <Array as="points">
              <mxPoint x="645" y="2760" />
            </Array>
          </mxGeometry>
        </mxCell>
        <mxCell id="6qOEAzcNz2W8X_dl7vt0-314" value="4.Id중복여부 확인" style="text;html=1;strokeColor=none;fillColor=none;align=center;verticalAlign=middle;whiteSpace=wrap;rounded=0;" vertex="1" parent="1">
          <mxGeometry x="555" y="2630" width="100" height="20" as="geometry" />
        </mxCell>
        <mxCell id="6qOEAzcNz2W8X_dl7vt0-315" value="" style="points=[];perimeter=orthogonalPerimeter;rounded=0;shadow=0;strokeWidth=1;" vertex="1" parent="1">
          <mxGeometry x="340" y="2670" width="10" height="30" as="geometry" />
        </mxCell>
        <mxCell id="6qOEAzcNz2W8X_dl7vt0-316" value="" style="points=[];perimeter=orthogonalPerimeter;rounded=0;shadow=0;strokeWidth=1;" vertex="1" parent="1">
          <mxGeometry x="55" y="2750" width="10" height="30" as="geometry" />
        </mxCell>
        <mxCell id="6qOEAzcNz2W8X_dl7vt0-317" value="" style="endArrow=none;dashed=1;html=1;strokeWidth=2;entryX=1.001;entryY=0.339;entryDx=0;entryDy=0;entryPerimeter=0;" edge="1" parent="1" target="6qOEAzcNz2W8X_dl7vt0-312">
          <mxGeometry width="50" height="50" relative="1" as="geometry">
            <mxPoint x="34.999999999999886" y="2720" as="sourcePoint" />
            <mxPoint x="735" y="2720" as="targetPoint" />
          </mxGeometry>
        </mxCell>
        <mxCell id="6qOEAzcNz2W8X_dl7vt0-318" value="6.가입정보 저장" style="verticalAlign=bottom;endArrow=block;shadow=0;strokeWidth=1;" edge="1" parent="1">
          <mxGeometry relative="1" as="geometry">
            <mxPoint x="574.9999999999999" y="2710" as="sourcePoint" />
            <mxPoint x="714.9999999999999" y="2710" as="targetPoint" />
          </mxGeometry>
        </mxCell>
        <mxCell id="6qOEAzcNz2W8X_dl7vt0-319" value="&lt;h1&gt;재고관리 시퀀스 다이어그램&lt;/h1&gt;" style="text;html=1;strokeColor=none;fillColor=none;spacing=5;spacingTop=-20;whiteSpace=wrap;overflow=hidden;rounded=0;" vertex="1" parent="1">
          <mxGeometry x="219.88" y="2440" width="440" height="50" as="geometry" />
        </mxCell>
      </root>
    </mxGraphModel>
  </diagram>
</mxfile>
